<?xml version="1.0" encoding="utf-8"?>
<!-- Generator: Adobe Illustrator 21.0.0, SVG Export Plug-In . SVG Version: 6.00 Build 0)  -->
<svg version="1.1" id="Layer_1" xmlns="http://www.w3.org/2000/svg" xmlns:xlink="http://www.w3.org/1999/xlink" x="0px" y="0px"
	 viewBox="0 0 350 26" style="enable-background:new 0 0 350 26;" xml:space="preserve">
<style type="text/css">
	.st0{fill:#2E2A25;}
	.st1{fill:#231F20;}
</style>
<g id="XMLID_151_">
	<path id="XMLID_69_" class="st0" d="M21,5l-1.5,1.7c-1.1-1.3-2.3-2.3-3.6-2.9s-2.6-1-3.8-1c-1.6,0-3,0.5-4.4,1.4
		C6.1,5,5,6.3,4.3,7.8C3.5,9.4,3.1,11,3.1,12.7c0,1.8,0.4,3.5,1.2,5c0.8,1.6,1.9,2.8,3.3,3.8c1.4,0.9,3,1.4,4.6,1.4
		c2,0,3.8-0.7,5.2-2c1.4-1.4,2.2-3.1,2.5-5.3h-6.3v-2.3h8.5c0,3.6-0.9,6.5-2.7,8.7c-1.8,2.1-4.2,3.2-7.2,3.2c-3.7,0-6.6-1.5-8.7-4.4
		C1.8,18.4,1,15.8,1,12.8c0-2.2,0.5-4.3,1.4-6.2S4.7,3.1,6.3,2s3.5-1.6,5.6-1.6c1.7,0,3.3,0.4,4.7,1.1S19.6,3.4,21,5z"/>
	<path id="XMLID_71_" class="st0" d="M39.5,1h2v23.5h-2V1z"/>
	<path id="XMLID_100_" class="st0" d="M59.8,1h9.9v2.3h-8v7.4h8V13h-8v11.5h-2V1z"/>
	<path id="XMLID_106_" class="st0" d="M85,3.3V1h10.9v2.3h-4.4v21.2h-2V3.3H85z"/>
	<g id="XMLID_68_">
		<path id="XMLID_108_" class="st0" d="M134.1,1h4c2.2,0,3.7,0.1,4.5,0.3c1.2,0.3,2.1,1,2.9,2.1c0.7,1.1,1.1,2.3,1.1,3.9
			c0,1.3-0.3,2.4-0.8,3.4c-0.5,1-1.2,1.7-2.2,2.2c-0.9,0.5-2.2,0.7-3.9,0.8l7.1,10.9h-2.5l-7.1-10.9h-1.1v10.9h-2V1z M136.1,3.3v8
			l3.4,0c1.3,0,2.3-0.1,2.9-0.4c0.6-0.3,1.1-0.8,1.5-1.4c0.4-0.7,0.5-1.4,0.5-2.2c0-0.8-0.2-1.5-0.5-2.2c-0.4-0.6-0.8-1.1-1.4-1.4
			c-0.6-0.3-1.6-0.4-2.9-0.4H136.1z"/>
		<path id="XMLID_111_" class="st0" d="M164.6,1H176v2.3h-9.4v7.4h9.3V13h-9.3v9.2h9.3v2.3h-11.3V1z"/>
		<path id="XMLID_113_" class="st0" d="M193.2,1h4c2.3,0,3.8,0.1,4.6,0.4c1.1,0.3,2.1,1,2.8,2s1.1,2.3,1.1,3.9
			c0,1.6-0.4,2.9-1.1,3.9c-0.7,1-1.7,1.7-2.9,2.1c-0.9,0.3-2.6,0.4-5,0.4h-1.4v10.9h-2V1z M195.2,3.3v8l3.4,0c1.4,0,2.4-0.1,3-0.4
			c0.6-0.3,1.1-0.8,1.5-1.4c0.4-0.7,0.5-1.4,0.5-2.2c0-0.8-0.2-1.5-0.5-2.2c-0.4-0.7-0.8-1.1-1.4-1.4c-0.6-0.3-1.6-0.4-2.9-0.4
			H195.2z"/>
		<path id="XMLID_116_" class="st0" d="M223.4,1h2v14.2c0,1.7,0,2.7,0.1,3.1c0.1,0.9,0.3,1.7,0.7,2.3c0.4,0.6,0.9,1.1,1.7,1.6
			c0.7,0.4,1.5,0.6,2.3,0.6c0.7,0,1.3-0.2,1.9-0.5c0.6-0.3,1.1-0.8,1.5-1.4c0.4-0.6,0.7-1.3,0.9-2.1c0.1-0.6,0.2-1.8,0.2-3.7V1h2
			v14.2c0,2.1-0.2,3.8-0.5,5.1c-0.3,1.3-1,2.4-2.1,3.4c-1,1-2.3,1.4-3.8,1.4c-1.6,0-3-0.5-4.1-1.4c-1.1-0.9-1.9-2.1-2.3-3.6
			c-0.2-0.9-0.4-2.6-0.4-5V1z"/>
		<path id="XMLID_118_" class="st0" d="M255.3,1h3.9c1.6,0,2.8,0.2,3.6,0.7c0.8,0.4,1.5,1.1,2,2c0.5,0.9,0.7,1.9,0.7,3.1
			c0,1-0.2,2-0.6,2.9c-0.4,0.9-1.1,1.6-1.9,2.1c1,0.4,1.8,0.9,2.4,1.5c0.6,0.6,1,1.2,1.3,2c0.3,0.8,0.5,1.7,0.5,2.6
			c0,1.9-0.6,3.5-1.7,4.8c-1.2,1.3-2.7,2-4.7,2h-5.4V1z M257.2,3.3v7.5h1.1c1.4,0,2.4-0.2,3-0.5c0.6-0.3,1.2-0.8,1.5-1.4
			c0.4-0.7,0.6-1.4,0.6-2.2c0-1.1-0.3-1.9-1-2.5c-0.6-0.6-1.6-0.9-3-0.9H257.2z M257.2,13.2v9h2.5c1.5,0,2.5-0.2,3.2-0.5
			c0.7-0.3,1.2-0.9,1.6-1.6c0.4-0.7,0.6-1.5,0.6-2.3c0-1-0.3-2-0.9-2.7c-0.6-0.8-1.4-1.3-2.4-1.6c-0.7-0.2-1.9-0.3-3.5-0.3H257.2z"
			/>
		<path id="XMLID_122_" class="st0" d="M284.9,1h2v21.3h7.6v2.3h-9.6V1z"/>
		<path id="XMLID_124_" class="st0" d="M311.2,1h2v23.5h-2V1z"/>
		<path id="XMLID_126_" class="st0" d="M350,5.4l-1.6,1.4c-0.9-1.3-1.9-2.3-3.1-3c-1.2-0.7-2.5-1-4-1c-1.6,0-3,0.5-4.4,1.4
			c-1.3,0.9-2.4,2.1-3.1,3.6s-1.1,3.2-1.1,5.1c0,2.9,0.8,5.3,2.5,7.2c1.7,1.9,3.8,2.9,6.3,2.9c2.8,0,5.1-1.3,7-3.9l1.6,1.4
			c-1,1.5-2.2,2.6-3.7,3.5c-1.5,0.8-3.1,1.2-5,1.2c-3.5,0-6.2-1.4-8.2-4.1c-1.7-2.3-2.5-5.1-2.5-8.4c0-3.4,1-6.3,3.1-8.7
			c2-2.3,4.6-3.5,7.7-3.5c1.9,0,3.5,0.4,5,1.3C347.8,2.6,349,3.8,350,5.4z"/>
	</g>
	<g id="XMLID_25_">
		<path id="XMLID_26_" class="st1" d="M13.1,16.1h6.2c-0.3,1.8-1.1,3.3-2.3,4.4c-1.3,1.3-2.9,1.9-4.8,1.9c-1.6,0-3-0.4-4.4-1.3
			c-1.3-0.9-2.4-2.1-3.1-3.6c-0.8-1.5-1.1-3.1-1.1-4.8c0-1.6,0.4-3.2,1.1-4.7c0.7-1.5,1.8-2.6,3.1-3.5c2.4-1.5,5-1.7,7.8-0.3
			c1.3,0.6,2.4,1.6,3.5,2.8l0.4,0.4L21.7,5l-0.3-0.3c-1.5-1.6-3-2.8-4.5-3.6c-1.5-0.7-3.2-1.1-5-1.1C9.8,0,7.8,0.6,6.1,1.7
			C4.3,2.8,3,4.4,2,6.4c-1,2-1.5,4.1-1.5,6.4c0,3.1,0.9,5.9,2.6,8.2c2.2,3.1,5.3,4.7,9.1,4.7c3.2,0,5.7-1.1,7.6-3.4
			c1.9-2.2,2.8-5.2,2.9-9l0-0.5h-9.6V16.1z"/>
		<rect id="XMLID_27_" x="39" y="0.6" class="st1" width="3" height="24.5"/>
		<polygon id="XMLID_28_" class="st1" points="59.3,25.1 62.3,25.1 62.3,13.6 70.3,13.6 70.3,10.3 62.3,10.3 62.3,3.9 70.3,3.9 
			70.3,0.6 59.3,0.6 		"/>
		<polygon id="XMLID_29_" class="st1" points="84.5,0.6 84.5,3.9 89,3.9 89,25.1 92,25.1 92,3.9 96.4,3.9 96.4,0.6 		"/>
	</g>
</g>
</svg>
