<svg xmlns="http://www.w3.org/2000/svg" xmlns:xlink="http://www.w3.org/1999/xlink" version="1.1" id="Layer_1" x="0px" y="0px" viewBox="0 0 184 121" style="enable-background:new 0 0 184 121;" xml:space="preserve">
<style type="text/css">
	.st0{fill:#2E2A25;}
	.st1{fill:#1D1D1B;}
	.st2{fill:#A7E6D9;}
</style>
<g id="XMLID_87_">
	<g id="XMLID_151_">
		<path id="XMLID_69_" class="st0" d="M10.8,109.9l-0.8,0.9c-0.6-0.7-1.2-1.2-1.9-1.5s-1.4-0.5-2-0.5c-0.8,0-1.6,0.2-2.3,0.7    s-1.3,1.1-1.7,1.9s-0.6,1.7-0.6,2.6s0.2,1.8,0.6,2.7s1,1.5,1.7,2s1.6,0.7,2.4,0.7c1.1,0,2-0.4,2.7-1.1s1.2-1.7,1.3-2.8H6.9v-1.2    h4.5c0,1.9-0.5,3.4-1.4,4.6c-0.9,1.1-2.2,1.7-3.8,1.7c-1.9,0-3.5-0.8-4.6-2.3c-0.9-1.2-1.3-2.6-1.3-4.2c0-1.2,0.2-2.3,0.7-3.3    s1.2-1.8,2-2.4s1.8-0.9,2.9-0.9c0.9,0,1.7,0.2,2.5,0.6C9.3,108.4,10,109,10.8,109.9z"/>
		<path id="XMLID_71_" class="st0" d="M20.5,107.8h1v12.4h-1V107.8z"/>
		<path id="XMLID_100_" class="st0" d="M31.2,107.8h5.2v1.2h-4.2v3.9h4.2v1.2h-4.2v6.1h-1V107.8z"/>
		<path id="XMLID_106_" class="st0" d="M44.5,109v-1.2h5.7v1.2h-2.3v11.2h-1.1V109H44.5z"/>
		<g id="XMLID_68_">
			<path id="XMLID_108_" class="st0" d="M70.3,107.8h2.1c1.2,0,1.9,0.1,2.4,0.2c0.6,0.2,1.1,0.5,1.5,1.1s0.6,1.2,0.6,2     c0,0.7-0.1,1.3-0.4,1.8s-0.6,0.9-1.1,1.2c-0.5,0.3-1.2,0.4-2.1,0.4l3.8,5.8h-1.3l-3.8-5.8h-0.6v5.8h-1L70.3,107.8L70.3,107.8z      M71.4,109v4.2h1.8c0.7,0,1.2-0.1,1.5-0.2c0.3-0.2,0.6-0.4,0.8-0.8c0.2-0.3,0.3-0.7,0.3-1.2c0-0.4-0.1-0.8-0.3-1.1     s-0.4-0.6-0.7-0.7c-0.3-0.1-0.8-0.2-1.5-0.2C73.3,109,71.4,109,71.4,109z"/>
			<path id="XMLID_111_" class="st0" d="M86.4,107.8h6v1.2h-4.9v3.9h4.9v1.2h-4.9v4.9h4.9v1.2h-5.9L86.4,107.8L86.4,107.8z"/>
			<path id="XMLID_113_" class="st0" d="M101.4,107.8h2.1c1.2,0,2,0.1,2.4,0.2c0.6,0.2,1.1,0.5,1.5,1.1c0.4,0.5,0.6,1.2,0.6,2     s-0.2,1.5-0.6,2s-0.9,0.9-1.5,1.1c-0.5,0.1-1.4,0.2-2.7,0.2h-0.7v5.8h-1v-12.4H101.4z M102.5,109v4.2h1.8c0.7,0,1.2-0.1,1.6-0.2     c0.3-0.2,0.6-0.4,0.8-0.7c0.2-0.3,0.3-0.7,0.3-1.2c0-0.4-0.1-0.8-0.3-1.1c-0.2-0.3-0.4-0.6-0.7-0.7c-0.3-0.1-0.8-0.2-1.5-0.2h-2     V109z"/>
			<path id="XMLID_116_" class="st0" d="M117.4,107.8h1v7.5c0,0.9,0,1.4,0,1.7c0.1,0.5,0.2,0.9,0.4,1.2c0.2,0.3,0.5,0.6,0.9,0.8     c0.4,0.2,0.8,0.3,1.2,0.3c0.3,0,0.7-0.1,1-0.3c0.3-0.2,0.6-0.4,0.8-0.7c0.2-0.3,0.4-0.7,0.5-1.1c0.1-0.3,0.1-1,0.1-1.9v-7.5h1     v7.5c0,1.1-0.1,2-0.3,2.7c-0.2,0.7-0.5,1.3-1.1,1.8c-0.5,0.5-1.2,0.8-2,0.8s-1.6-0.2-2.2-0.7s-1-1.1-1.2-1.9     c-0.1-0.5-0.2-1.4-0.2-2.6L117.4,107.8L117.4,107.8z"/>
			<path id="XMLID_118_" class="st0" d="M134.1,107.8h2.1c0.8,0,1.5,0.1,1.9,0.3c0.4,0.2,0.8,0.6,1.1,1.1s0.4,1,0.4,1.6     c0,0.5-0.1,1.1-0.3,1.5c-0.2,0.5-0.6,0.8-1,1.1c0.5,0.2,1,0.5,1.3,0.8s0.5,0.7,0.7,1.1s0.2,0.9,0.2,1.4c0,1-0.3,1.8-0.9,2.5     c-0.6,0.7-1.4,1-2.5,1h-2.9v-12.4H134.1z M135.2,109v4h0.6c0.7,0,1.3-0.1,1.6-0.2c0.3-0.2,0.6-0.4,0.8-0.8     c0.2-0.3,0.3-0.7,0.3-1.1c0-0.6-0.2-1-0.5-1.3s-0.9-0.5-1.6-0.5L135.2,109L135.2,109z M135.2,114.2v4.7h1.3     c0.8,0,1.3-0.1,1.7-0.3c0.4-0.2,0.6-0.5,0.9-0.8c0.2-0.4,0.3-0.8,0.3-1.2c0-0.6-0.2-1-0.5-1.4s-0.7-0.7-1.3-0.8     c-0.4-0.1-1-0.2-1.9-0.2C135.7,114.2,135.2,114.2,135.2,114.2z"/>
			<path id="XMLID_122_" class="st0" d="M149.7,107.8h1V119h4v1.2h-5.1v-12.4H149.7z"/>
			<path id="XMLID_124_" class="st0" d="M163.6,107.8h1v12.4h-1V107.8z"/>
			<path id="XMLID_126_" class="st0" d="M184,110.1l-0.8,0.7c-0.5-0.7-1-1.2-1.6-1.6s-1.3-0.5-2.1-0.5s-1.6,0.2-2.3,0.7     s-1.3,1.1-1.7,1.9s-0.6,1.7-0.6,2.7c0,1.5,0.4,2.8,1.3,3.8c0.9,1,2,1.5,3.3,1.5c1.5,0,2.7-0.7,3.7-2l0.8,0.7     c-0.5,0.8-1.2,1.4-1.9,1.8c-0.8,0.4-1.6,0.6-2.6,0.6c-1.8,0-3.3-0.7-4.3-2.2c-0.9-1.2-1.3-2.7-1.3-4.4c0-1.8,0.5-3.3,1.6-4.6     c1.1-1.2,2.4-1.9,4-1.9c1,0,1.9,0.2,2.6,0.7C182.9,108.6,183.5,109.3,184,110.1z"/>
		</g>
		<g id="XMLID_25_">
			<path id="XMLID_26_" class="st1" d="M6.6,115.8h3.3c-0.2,0.9-0.6,1.7-1.2,2.3c-0.7,0.7-1.5,1-2.5,1c-0.8,0-1.6-0.2-2.3-0.7     s-1.3-1.1-1.7-1.9s-0.6-1.7-0.6-2.5c0-0.9,0.2-1.7,0.6-2.5s0.9-1.4,1.6-1.8c1.3-0.8,2.6-0.9,4.1-0.2c0.7,0.3,1.3,0.8,1.8,1.5     l0.2,0.2l1.2-1.3l-0.2-0.2c-0.8-0.9-1.6-1.5-2.4-1.9c-0.8-0.4-1.7-0.6-2.6-0.6c-1.1,0-2.2,0.3-3.1,0.9s-1.6,1.4-2.1,2.5     c-0.5,1-0.8,2.2-0.8,3.4c0,1.6,0.5,3.1,1.4,4.3c1.2,1.6,2.8,2.5,4.8,2.5c1.7,0,3-0.6,4-1.8c1-1.2,1.5-2.8,1.5-4.7V114h-5     C6.6,114,6.6,115.8,6.6,115.8z"/>
			<rect id="XMLID_27_" x="20.2" y="107.6" class="st1" width="1.6" height="12.9"/>
			<polygon id="XMLID_28_" class="st1" points="30.9,120.5 32.5,120.5 32.5,114.4 36.7,114.4 36.7,112.7 32.5,112.7 32.5,109.3      36.7,109.3 36.7,107.6 30.9,107.6    "/>
			<polygon id="XMLID_29_" class="st1" points="44.2,107.6 44.2,109.3 46.6,109.3 46.6,120.5 48.2,120.5 48.2,109.3 50.5,109.3      50.5,107.6    "/>
		</g>
	</g>
	<g>
		<g id="XMLID_3_">
			<rect id="XMLID_4_" x="49.2" y="0" class="st2" width="85.7" height="85.7"/>
		</g>
		<path id="XMLID_2_" class="st0" d="M93.7,12.4c-7.6,0-13.7,6.2-13.7,13.7c0,7.6,6.2,13.7,13.7,13.7c7.6,0,13.7-6.2,13.7-13.7    C107.4,18.6,101.3,12.4,93.7,12.4z M104.6,24.8h-9.6v-9.6C100,15.8,104,19.8,104.6,24.8z M93.7,37.1c-6.1,0-11-4.9-11-11    c0-5.6,4.2-10.2,9.7-10.9v12.3h12.3C104,32.9,99.3,37.1,93.7,37.1z"/>
		<path id="XMLID_1_" class="st0" d="M99.3,60.1c0.3-0.2,0.5-0.3,0.8-0.5c3.1-1.9,4.6-5.6,3.6-9.1c-1-3.6-4.2-6-7.9-6    c-4.4,0-8.7,0-13.1,0c-0.3,0-0.5,0-0.8,0c0,8.8,0,17.5,0,26.2c9.3,0,18.5,0,27.7,0c0-0.1,0.1-0.1,0.1-0.2    C106.3,67,102.8,63.5,99.3,60.1z M84.8,50.2v-2.8l2.2,0c3,0,6.1,0,9.1,0c2.3,0,4.3,1.7,4.8,4c0.5,2.2-0.4,4.5-2.3,5.6    c-0.5,0.3-0.9,0.6-1.3,0.8l-3.1,1.8l-9.4,5.8C84.8,60.3,84.8,55.2,84.8,50.2z M86.7,67.7c1.9-1.2,3.8-2.3,5.6-3.4l4.3-2.7l3.1,3.1    c1,1,2,2,3,3C97.4,67.7,92.1,67.7,86.7,67.7z"/>
	</g>
</g>
</svg>